<svg xmlns="http://www.w3.org/2000/svg" width="38.686" height="38.686" viewBox="0 0 38.686 38.686">
  <path id="Icon_ionic-ios-close-circle" data-name="Icon ionic-ios-close-circle" d="M22.718,3.375A19.343,19.343,0,1,0,42.061,22.718,19.34,19.34,0,0,0,22.718,3.375Zm4.9,26.346-4.9-4.9-4.9,4.9a1.486,1.486,0,1,1-2.1-2.1l4.9-4.9-4.9-4.9a1.486,1.486,0,0,1,2.1-2.1l4.9,4.9,4.9-4.9a1.486,1.486,0,0,1,2.1,2.1l-4.9,4.9,4.9,4.9a1.493,1.493,0,0,1,0,2.1A1.476,1.476,0,0,1,27.619,29.721Z" transform="translate(-3.375 -3.375)" fill="#4fea74"/>
</svg>
