<svg width="100" height="100" viewBox="0 0 100 100" fill="none" xmlns="http://www.w3.org/2000/svg">
<path d="M3.125 56.25C1.40625 56.25 0 57.6562 0 59.375V65.625C0 67.3438 1.40625 68.75 3.125 68.75H25V56.25H3.125ZM98.6328 20.5078L79.5117 1.36719C78.6328 0.488281 77.4414 0 76.1914 0H75V25H100V23.8086C100 22.5781 99.5117 21.3867 98.6328 20.5078ZM68.75 26.5625V0H29.6875C27.0898 0 25 2.08984 25 4.6875V56.25H50V43.5156C50 40.7227 53.3789 39.3359 55.3516 41.3086L74.0234 60.1562C75.3125 61.4648 75.3125 63.5547 74.0234 64.8438L55.332 83.6719C53.3594 85.6445 49.9805 84.2578 49.9805 81.4648V68.75H25V95.3125C25 97.9102 27.0898 100 29.6875 100H95.3125C97.9102 100 100 97.9102 100 95.3125V31.25H73.4375C70.8594 31.25 68.75 29.1406 68.75 26.5625Z" fill="white"/>
</svg>
