<svg width="38" height="30" viewBox="0 0 38 30" fill="none" xmlns="http://www.w3.org/2000/svg">
<path d="M1.58333 13.5483H36.4167C37.2911 13.5483 38 14.4149 38 15.4838C38 16.5528 37.2911 17.4193 36.4167 17.4193H1.58333C0.708881 17.4193 0 16.5528 0 15.4838C0 14.4149 0.708881 13.5483 1.58333 13.5483Z" fill="#FFDB57"/>
<path d="M1.58333 0H36.4167C37.2911 0 38 0.866546 38 1.93548C38 3.00442 37.2911 3.87097 36.4167 3.87097H1.58333C0.708881 3.87097 0 3.00442 0 1.93548C0 0.866546 0.708881 0 1.58333 0Z" fill="#FFDB57"/>
<path d="M1.58333 26.1289H36.4167C37.2911 26.1289 38 26.9955 38 28.0644C38 29.1333 37.2911 29.9999 36.4167 29.9999H1.58333C0.708881 29.9999 0 29.1333 0 28.0644C0 26.9955 0.708881 26.1289 1.58333 26.1289Z" fill="#FFDB57"/>
</svg>
