<svg width="100" height="100" viewBox="0 0 100 100" fill="none" xmlns="http://www.w3.org/2000/svg">
<path d="M92.8571 39.2857H60.7143V7.14286C60.7143 3.19866 57.5156 0 53.5714 0H46.4286C42.4844 0 39.2857 3.19866 39.2857 7.14286V39.2857H7.14286C3.19866 39.2857 0 42.4844 0 46.4286V53.5714C0 57.5156 3.19866 60.7143 7.14286 60.7143H39.2857V92.8571C39.2857 96.8013 42.4844 100 46.4286 100H53.5714C57.5156 100 60.7143 96.8013 60.7143 92.8571V60.7143H92.8571C96.8013 60.7143 100 57.5156 100 53.5714V46.4286C100 42.4844 96.8013 39.2857 92.8571 39.2857Z" fill="#FFF"/>
</svg>
