<svg width="35" height="37" viewBox="0 0 35 37" fill="none" xmlns="http://www.w3.org/2000/svg">
<rect x="7.36816" y="21.1426" width="1.84211" height="1.76191" fill="#FFDB57"/>
<rect x="7.36816" y="7.04785" width="1.84211" height="1.7619" fill="#FFDB57"/>
<rect x="7.36816" y="17.6191" width="1.84211" height="1.76191" fill="#FFDB57"/>
<rect x="7.36816" y="28.1904" width="1.84211" height="1.76191" fill="#FFDB57"/>
<rect x="7.36816" y="24.666" width="1.84211" height="1.76191" fill="#FFDB57"/>
<rect x="11.0527" y="7.04785" width="1.84211" height="1.7619" fill="#FFDB57"/>
<rect x="11.0527" y="17.6191" width="1.84211" height="1.76191" fill="#FFDB57"/>
<rect x="11.0527" y="14.0947" width="1.84211" height="1.7619" fill="#FFDB57"/>
<rect x="11.0527" y="24.666" width="1.84211" height="1.76191" fill="#FFDB57"/>
<rect x="3.68359" y="21.1426" width="1.84211" height="1.76191" fill="#FFDB57"/>
<rect x="14.7363" y="21.1426" width="1.8421" height="1.76191" fill="#FFDB57"/>
<rect x="14.7363" y="7.04785" width="1.8421" height="1.7619" fill="#FFDB57"/>
<rect x="14.7363" y="31.7139" width="1.8421" height="1.7619" fill="#FFDB57"/>
<rect x="14.7363" y="17.6191" width="1.8421" height="1.76191" fill="#FFDB57"/>
<rect x="14.7363" y="3.52344" width="1.8421" height="1.7619" fill="#FFDB57"/>
<rect x="3.68359" y="14.0947" width="1.84211" height="1.7619" fill="#FFDB57"/>
<rect x="14.7363" y="14.0947" width="1.8421" height="1.7619" fill="#FFDB57"/>
<rect x="3.68359" y="24.666" width="1.84211" height="1.76191" fill="#FFDB57"/>
<rect x="3.68359" y="10.5713" width="1.84211" height="1.7619" fill="#FFDB57"/>
<rect x="14.7363" y="24.666" width="1.8421" height="1.76191" fill="#FFDB57"/>
<rect x="7.36816" y="22.9043" width="1.84211" height="1.7619" fill="#FFDB57"/>
<rect x="7.36816" y="19.3809" width="1.84211" height="1.7619" fill="#FFDB57"/>
<rect x="7.36816" y="15.8574" width="1.84211" height="1.7619" fill="#FFDB57"/>
<rect x="7.36816" y="12.333" width="1.84211" height="1.7619" fill="#FFDB57"/>
<rect x="11.0527" y="22.9043" width="1.84211" height="1.7619" fill="#FFDB57"/>
<rect x="11.0527" y="8.80957" width="1.84211" height="1.7619" fill="#FFDB57"/>
<rect x="11.0527" y="29.9521" width="1.84211" height="1.7619" fill="#FFDB57"/>
<rect x="11.0527" y="15.8574" width="1.84211" height="1.7619" fill="#FFDB57"/>
<rect x="11.0527" y="26.4287" width="1.84211" height="1.7619" fill="#FFDB57"/>
<rect x="11.0527" y="12.333" width="1.84211" height="1.7619" fill="#FFDB57"/>
<rect x="3.68359" y="22.9043" width="1.84211" height="1.7619" fill="#FFDB57"/>
<rect x="14.7363" y="22.9043" width="1.8421" height="1.7619" fill="#FFDB57"/>
<rect x="14.7363" y="8.80957" width="1.8421" height="1.7619" fill="#FFDB57"/>
<rect x="14.7363" y="33.4756" width="1.8421" height="1.76191" fill="#FFDB57"/>
<rect x="14.7363" y="19.3809" width="1.8421" height="1.7619" fill="#FFDB57"/>
<rect x="14.7363" y="5.28516" width="1.8421" height="1.7619" fill="#FFDB57"/>
<rect x="14.7363" y="29.9521" width="1.8421" height="1.7619" fill="#FFDB57"/>
<rect x="14.7363" y="15.8574" width="1.8421" height="1.7619" fill="#FFDB57"/>
<rect x="3.68359" y="12.333" width="1.84211" height="1.7619" fill="#FFDB57"/>
<rect x="14.7363" y="12.333" width="1.8421" height="1.7619" fill="#FFDB57"/>
<rect x="9.20996" y="21.1426" width="1.8421" height="1.76191" fill="#FFDB57"/>
<rect x="9.20996" y="14.0947" width="1.8421" height="1.7619" fill="#FFDB57"/>
<rect x="9.20996" y="24.666" width="1.8421" height="1.76191" fill="#FFDB57"/>
<rect x="12.8945" y="21.1426" width="1.8421" height="1.76191" fill="#FFDB57"/>
<rect x="12.8945" y="7.04785" width="1.8421" height="1.7619" fill="#FFDB57"/>
<rect x="1.8418" y="17.6191" width="1.84211" height="1.76191" fill="#FFDB57"/>
<rect x="12.8945" y="31.7139" width="1.8421" height="1.7619" fill="#FFDB57"/>
<rect x="12.8945" y="17.6191" width="1.8421" height="1.76191" fill="#FFDB57"/>
<rect x="1.8418" y="14.0947" width="1.84211" height="1.7619" fill="#FFDB57"/>
<rect x="12.8945" y="14.0947" width="1.8421" height="1.7619" fill="#FFDB57"/>
<rect x="1.8418" y="10.5713" width="1.84211" height="1.7619" fill="#FFDB57"/>
<rect x="5.52637" y="21.1426" width="1.84211" height="1.76191" fill="#FFDB57"/>
<rect x="5.52637" y="7.04785" width="1.84211" height="1.7619" fill="#FFDB57"/>
<rect x="16.5791" y="7.04785" width="1.84211" height="1.7619" fill="#FFDB57"/>
<rect x="5.52637" y="17.6191" width="1.84211" height="1.76191" fill="#FFDB57"/>
<rect x="16.5791" y="3.52344" width="1.84211" height="1.7619" fill="#FFDB57"/>
<rect x="5.52637" y="28.1904" width="1.84211" height="1.76191" fill="#FFDB57"/>
<rect x="5.52637" y="24.666" width="1.84211" height="1.76191" fill="#FFDB57"/>
<rect x="16.5791" y="24.666" width="1.84211" height="1.76191" fill="#FFDB57"/>
<rect x="9.20996" y="22.9043" width="1.8421" height="1.7619" fill="#FFDB57"/>
<rect x="9.20996" y="8.80957" width="1.8421" height="1.7619" fill="#FFDB57"/>
<rect x="9.20996" y="19.3809" width="1.8421" height="1.7619" fill="#FFDB57"/>
<rect x="9.20996" y="5.28516" width="1.8421" height="1.7619" fill="#FFDB57"/>
<rect x="9.20996" y="29.9521" width="1.8421" height="1.7619" fill="#FFDB57"/>
<rect x="9.20996" y="26.4287" width="1.8421" height="1.7619" fill="#FFDB57"/>
<rect x="9.20996" y="12.333" width="1.8421" height="1.7619" fill="#FFDB57"/>
<rect x="1.8418" y="8.80957" width="1.84211" height="1.7619" fill="#FFDB57"/>
<rect x="12.8945" y="8.80957" width="1.8421" height="1.7619" fill="#FFDB57"/>
<rect x="1.8418" y="19.3809" width="1.84211" height="1.7619" fill="#FFDB57"/>
<rect x="12.8945" y="19.3809" width="1.8421" height="1.7619" fill="#FFDB57"/>
<rect x="12.8945" y="5.28516" width="1.8421" height="1.7619" fill="#FFDB57"/>
<rect x="1.8418" y="15.8574" width="1.84211" height="1.7619" fill="#FFDB57"/>
<rect x="12.8945" y="29.9521" width="1.8421" height="1.7619" fill="#FFDB57"/>
<rect x="12.8945" y="15.8574" width="1.8421" height="1.7619" fill="#FFDB57"/>
<rect x="1.8418" y="12.333" width="1.84211" height="1.7619" fill="#FFDB57"/>
<rect x="12.8945" y="26.4287" width="1.8421" height="1.7619" fill="#FFDB57"/>
<rect x="12.8945" y="12.333" width="1.8421" height="1.7619" fill="#FFDB57"/>
<rect x="5.52637" y="22.9043" width="1.84211" height="1.7619" fill="#FFDB57"/>
<rect x="5.52637" y="8.80957" width="1.84211" height="1.7619" fill="#FFDB57"/>
<rect x="16.5791" y="22.9043" width="1.84211" height="1.7619" fill="#FFDB57"/>
<rect x="16.5791" y="8.80957" width="1.84211" height="1.7619" fill="#FFDB57"/>
<rect x="5.52637" y="19.3809" width="1.84211" height="1.7619" fill="#FFDB57"/>
<rect x="16.5791" y="5.28516" width="1.84211" height="1.7619" fill="#FFDB57"/>
<rect x="5.52637" y="15.8574" width="1.84211" height="1.7619" fill="#FFDB57"/>
<rect x="16.5791" y="1.76172" width="1.84211" height="1.7619" fill="#FFDB57"/>
<rect x="16.5791" y="26.4287" width="1.84211" height="1.7619" fill="#FFDB57"/>
<rect x="16.5791" y="12.333" width="1.84211" height="1.7619" fill="#FFDB57"/>
<rect width="1.8421" height="1.76191" transform="matrix(-1 0 0 1 27.6309 21.1426)" fill="#FFDB57"/>
<rect width="1.8421" height="1.7619" transform="matrix(-1 0 0 1 27.6309 7.04785)" fill="#FFDB57"/>
<rect width="1.8421" height="1.76191" transform="matrix(-1 0 0 1 27.6309 17.6191)" fill="#FFDB57"/>
<rect width="1.8421" height="1.76191" transform="matrix(-1 0 0 1 27.6309 28.1904)" fill="#FFDB57"/>
<rect width="1.8421" height="1.76191" transform="matrix(-1 0 0 1 27.6309 24.666)" fill="#FFDB57"/>
<rect width="1.84211" height="1.7619" transform="matrix(-1 0 0 1 23.9473 7.04785)" fill="#FFDB57"/>
<rect width="1.84211" height="1.76191" transform="matrix(-1 0 0 1 23.9473 17.6191)" fill="#FFDB57"/>
<rect width="1.84211" height="1.7619" transform="matrix(-1 0 0 1 23.9473 14.0947)" fill="#FFDB57"/>
<rect width="1.84211" height="1.76191" transform="matrix(-1 0 0 1 23.9473 24.666)" fill="#FFDB57"/>
<rect width="1.84211" height="1.76191" transform="matrix(-1 0 0 1 31.3154 21.1426)" fill="#FFDB57"/>
<rect width="1.84211" height="1.76191" transform="matrix(-1 0 0 1 20.2627 21.1426)" fill="#FFDB57"/>
<rect width="1.84211" height="1.7619" transform="matrix(-1 0 0 1 20.2627 7.04785)" fill="#FFDB57"/>
<rect width="1.84211" height="1.7619" transform="matrix(-1 0 0 1 20.2627 31.7139)" fill="#FFDB57"/>
<rect width="1.84211" height="1.76191" transform="matrix(-1 0 0 1 20.2627 17.6191)" fill="#FFDB57"/>
<rect width="1.84211" height="1.7619" transform="matrix(-1 0 0 1 20.2627 3.52344)" fill="#FFDB57"/>
<rect width="1.84211" height="1.7619" transform="matrix(-1 0 0 1 31.3154 14.0947)" fill="#FFDB57"/>
<rect width="1.84211" height="1.7619" transform="matrix(-1 0 0 1 20.2627 14.0947)" fill="#FFDB57"/>
<rect width="1.84211" height="1.76191" transform="matrix(-1 0 0 1 31.3154 24.666)" fill="#FFDB57"/>
<rect width="1.84211" height="1.7619" transform="matrix(-1 0 0 1 31.3154 10.5713)" fill="#FFDB57"/>
<rect width="1.84211" height="1.76191" transform="matrix(-1 0 0 1 20.2627 24.666)" fill="#FFDB57"/>
<rect width="1.8421" height="1.7619" transform="matrix(-1 0 0 1 27.6309 22.9043)" fill="#FFDB57"/>
<rect width="1.8421" height="1.7619" transform="matrix(-1 0 0 1 27.6309 19.3809)" fill="#FFDB57"/>
<rect width="1.8421" height="1.7619" transform="matrix(-1 0 0 1 27.6309 15.8574)" fill="#FFDB57"/>
<rect width="1.8421" height="1.7619" transform="matrix(-1 0 0 1 27.6309 12.333)" fill="#FFDB57"/>
<rect width="1.84211" height="1.7619" transform="matrix(-1 0 0 1 23.9473 22.9043)" fill="#FFDB57"/>
<rect width="1.84211" height="1.7619" transform="matrix(-1 0 0 1 23.9473 8.80957)" fill="#FFDB57"/>
<rect width="1.84211" height="1.7619" transform="matrix(-1 0 0 1 23.9473 29.9521)" fill="#FFDB57"/>
<rect width="1.84211" height="1.7619" transform="matrix(-1 0 0 1 23.9473 15.8574)" fill="#FFDB57"/>
<rect width="1.84211" height="1.7619" transform="matrix(-1 0 0 1 23.9473 26.4287)" fill="#FFDB57"/>
<rect width="1.84211" height="1.7619" transform="matrix(-1 0 0 1 23.9473 12.333)" fill="#FFDB57"/>
<rect width="1.84211" height="1.7619" transform="matrix(-1 0 0 1 31.3154 22.9043)" fill="#FFDB57"/>
<rect width="1.84211" height="1.7619" transform="matrix(-1 0 0 1 20.2627 22.9043)" fill="#FFDB57"/>
<rect width="1.84211" height="1.7619" transform="matrix(-1 0 0 1 20.2627 8.80957)" fill="#FFDB57"/>
<rect width="1.84211" height="1.76191" transform="matrix(-1 0 0 1 20.2627 33.4756)" fill="#FFDB57"/>
<rect width="1.84211" height="1.7619" transform="matrix(-1 0 0 1 20.2627 19.3809)" fill="#FFDB57"/>
<rect width="1.84211" height="1.7619" transform="matrix(-1 0 0 1 20.2627 5.28516)" fill="#FFDB57"/>
<rect width="1.84211" height="1.7619" transform="matrix(-1 0 0 1 20.2627 29.9521)" fill="#FFDB57"/>
<rect width="1.84211" height="1.7619" transform="matrix(-1 0 0 1 20.2627 15.8574)" fill="#FFDB57"/>
<rect width="1.84211" height="1.7619" transform="matrix(-1 0 0 1 31.3154 12.333)" fill="#FFDB57"/>
<rect width="1.84211" height="1.7619" transform="matrix(-1 0 0 1 20.2627 12.333)" fill="#FFDB57"/>
<rect width="1.84211" height="1.76191" transform="matrix(-1 0 0 1 25.7891 21.1426)" fill="#FFDB57"/>
<rect width="1.84211" height="1.7619" transform="matrix(-1 0 0 1 25.7891 14.0947)" fill="#FFDB57"/>
<rect width="1.84211" height="1.76191" transform="matrix(-1 0 0 1 25.7891 24.666)" fill="#FFDB57"/>
<rect width="1.8421" height="1.76191" transform="matrix(-1 0 0 1 22.1045 21.1426)" fill="#FFDB57"/>
<rect width="1.8421" height="1.7619" transform="matrix(-1 0 0 1 22.1045 7.04785)" fill="#FFDB57"/>
<rect width="1.8421" height="1.76191" transform="matrix(-1 0 0 1 33.1572 17.6191)" fill="#FFDB57"/>
<rect width="1.8421" height="1.7619" transform="matrix(-1 0 0 1 22.1045 31.7139)" fill="#FFDB57"/>
<rect width="1.8421" height="1.76191" transform="matrix(-1 0 0 1 22.1045 17.6191)" fill="#FFDB57"/>
<rect width="1.8421" height="1.7619" transform="matrix(-1 0 0 1 33.1572 14.0947)" fill="#FFDB57"/>
<rect width="1.8421" height="1.7619" transform="matrix(-1 0 0 1 22.1045 14.0947)" fill="#FFDB57"/>
<rect width="1.8421" height="1.7619" transform="matrix(-1 0 0 1 33.1572 10.5713)" fill="#FFDB57"/>
<rect width="1.84211" height="1.76191" transform="matrix(-1 0 0 1 29.4736 21.1426)" fill="#FFDB57"/>
<rect width="1.84211" height="1.7619" transform="matrix(-1 0 0 1 29.4736 7.04785)" fill="#FFDB57"/>
<rect width="1.84211" height="1.76191" transform="matrix(-1 0 0 1 29.4736 17.6191)" fill="#FFDB57"/>
<rect width="1.84211" height="1.76191" transform="matrix(-1 0 0 1 29.4736 28.1904)" fill="#FFDB57"/>
<rect width="1.84211" height="1.76191" transform="matrix(-1 0 0 1 29.4736 24.666)" fill="#FFDB57"/>
<rect width="1.84211" height="1.7619" transform="matrix(-1 0 0 1 25.7891 22.9043)" fill="#FFDB57"/>
<rect width="1.84211" height="1.7619" transform="matrix(-1 0 0 1 25.7891 8.80957)" fill="#FFDB57"/>
<rect width="1.84211" height="1.7619" transform="matrix(-1 0 0 1 25.7891 19.3809)" fill="#FFDB57"/>
<rect width="1.84211" height="1.7619" transform="matrix(-1 0 0 1 25.7891 5.28516)" fill="#FFDB57"/>
<rect width="1.84211" height="1.7619" transform="matrix(-1 0 0 1 25.7891 29.9521)" fill="#FFDB57"/>
<rect width="1.84211" height="1.7619" transform="matrix(-1 0 0 1 25.7891 26.4287)" fill="#FFDB57"/>
<rect width="1.84211" height="1.7619" transform="matrix(-1 0 0 1 25.7891 12.333)" fill="#FFDB57"/>
<rect width="1.8421" height="1.7619" transform="matrix(-1 0 0 1 33.1572 8.80957)" fill="#FFDB57"/>
<rect width="1.8421" height="1.7619" transform="matrix(-1 0 0 1 22.1045 8.80957)" fill="#FFDB57"/>
<rect width="1.8421" height="1.7619" transform="matrix(-1 0 0 1 33.1572 19.3809)" fill="#FFDB57"/>
<rect width="1.8421" height="1.7619" transform="matrix(-1 0 0 1 22.1045 19.3809)" fill="#FFDB57"/>
<rect width="1.8421" height="1.7619" transform="matrix(-1 0 0 1 22.1045 5.28516)" fill="#FFDB57"/>
<rect width="1.8421" height="1.7619" transform="matrix(-1 0 0 1 33.1572 15.8574)" fill="#FFDB57"/>
<rect width="1.8421" height="1.7619" transform="matrix(-1 0 0 1 22.1045 29.9521)" fill="#FFDB57"/>
<rect width="1.8421" height="1.7619" transform="matrix(-1 0 0 1 22.1045 15.8574)" fill="#FFDB57"/>
<rect width="1.8421" height="1.7619" transform="matrix(-1 0 0 1 33.1572 12.333)" fill="#FFDB57"/>
<rect width="1.8421" height="1.7619" transform="matrix(-1 0 0 1 22.1045 26.4287)" fill="#FFDB57"/>
<rect width="1.8421" height="1.7619" transform="matrix(-1 0 0 1 22.1045 12.333)" fill="#FFDB57"/>
<rect width="1.84211" height="1.7619" transform="matrix(-1 0 0 1 29.4736 22.9043)" fill="#FFDB57"/>
<rect width="1.84211" height="1.7619" transform="matrix(-1 0 0 1 29.4736 8.80957)" fill="#FFDB57"/>
<rect width="1.84211" height="1.7619" transform="matrix(-1 0 0 1 29.4736 19.3809)" fill="#FFDB57"/>
<rect width="1.84211" height="1.7619" transform="matrix(-1 0 0 1 29.4736 15.8574)" fill="#FFDB57"/>
<rect x="7.36816" y="14.0957" width="1.84211" height="1.7619" fill="black"/>
<rect x="7.36816" y="10.5713" width="1.84211" height="1.7619" fill="black"/>
<rect y="21.1426" width="1.84211" height="1.76191" fill="black"/>
<rect x="11.0527" y="21.1426" width="1.84211" height="1.76191" fill="black"/>
<rect y="17.6191" width="1.84211" height="1.76191" fill="black"/>
<rect x="11.0527" y="31.7139" width="1.84211" height="1.7619" fill="black"/>
<rect x="11.0527" y="3.52344" width="1.84211" height="1.7619" fill="black"/>
<rect y="14.0957" width="1.84211" height="1.7619" fill="black"/>
<rect x="11.0527" y="28.1904" width="1.84211" height="1.76191" fill="black"/>
<rect y="24.667" width="1.84211" height="1.76191" fill="black"/>
<rect y="10.5713" width="1.84211" height="1.7619" fill="black"/>
<rect x="11.0527" y="10.5713" width="1.84211" height="1.7619" fill="black"/>
<rect x="3.68457" y="7.04785" width="1.84211" height="1.7619" fill="black"/>
<rect x="14.7373" y="35.2383" width="1.8421" height="1.76191" fill="black"/>
<rect x="3.68457" y="17.6191" width="1.84211" height="1.76191" fill="black"/>
<rect x="3.68457" y="28.1904" width="1.84211" height="1.76191" fill="black"/>
<rect x="14.7373" y="28.1904" width="1.8421" height="1.76191" fill="black"/>
<rect x="14.7373" y="10.5713" width="1.8421" height="1.7619" fill="black"/>
<rect x="7.36816" y="8.80957" width="1.84211" height="1.7619" fill="black"/>
<rect x="7.36816" y="5.28613" width="1.84211" height="1.7619" fill="black"/>
<rect x="7.36816" y="29.9521" width="1.84211" height="1.7619" fill="black"/>
<rect x="7.36816" y="26.4287" width="1.84211" height="1.7619" fill="black"/>
<rect y="22.9043" width="1.84211" height="1.7619" fill="black"/>
<rect y="8.80957" width="1.84211" height="1.7619" fill="black"/>
<rect y="19.3809" width="1.84211" height="1.7619" fill="black"/>
<rect x="11.0527" y="19.3809" width="1.84211" height="1.7619" fill="black"/>
<rect x="11.0527" y="5.28613" width="1.84211" height="1.7619" fill="black"/>
<rect y="15.8574" width="1.84211" height="1.7619" fill="black"/>
<rect y="26.4287" width="1.84211" height="1.7619" fill="black"/>
<rect y="12.333" width="1.84211" height="1.7619" fill="black"/>
<rect x="3.68457" y="8.80957" width="1.84211" height="1.7619" fill="black"/>
<rect x="3.68457" y="19.3809" width="1.84211" height="1.7619" fill="black"/>
<rect x="3.68457" y="15.8574" width="1.84211" height="1.7619" fill="black"/>
<rect x="14.7373" y="1.76172" width="1.8421" height="1.7619" fill="black"/>
<rect x="3.68457" y="26.4287" width="1.84211" height="1.7619" fill="black"/>
<rect x="14.7373" y="26.4287" width="1.8421" height="1.7619" fill="black"/>
<rect x="9.21094" y="7.04785" width="1.8421" height="1.7619" fill="black"/>
<rect x="9.21094" y="31.7139" width="1.8421" height="1.7619" fill="black"/>
<rect x="9.21094" y="17.6191" width="1.8421" height="1.76191" fill="black"/>
<rect x="9.21094" y="3.52344" width="1.8421" height="1.7619" fill="black"/>
<rect x="9.21094" y="28.1904" width="1.8421" height="1.76191" fill="black"/>
<rect x="9.21094" y="10.5713" width="1.8421" height="1.7619" fill="black"/>
<rect x="1.8418" y="21.1426" width="1.84211" height="1.76191" fill="black"/>
<rect x="1.8418" y="7.04785" width="1.84211" height="1.7619" fill="black"/>
<rect x="12.8945" y="3.52344" width="1.8421" height="1.7619" fill="black"/>
<rect x="12.8945" y="28.1904" width="1.8421" height="1.76191" fill="black"/>
<rect x="1.8418" y="24.667" width="1.84211" height="1.76191" fill="black"/>
<rect x="12.8945" y="24.667" width="1.8421" height="1.76191" fill="black"/>
<rect x="12.8945" y="10.5713" width="1.8421" height="1.7619" fill="black"/>
<rect x="16.5791" y="35.2383" width="1.84211" height="1.76191" fill="black"/>
<rect x="16.5791" y="21.1426" width="1.84211" height="1.76191" fill="black"/>
<rect x="16.5791" y="31.7139" width="1.84211" height="1.7619" fill="black"/>
<rect x="16.5791" y="17.6191" width="1.84211" height="1.76191" fill="black"/>
<rect x="5.52637" y="14.0957" width="1.84211" height="1.7619" fill="black"/>
<rect x="16.5791" y="28.1904" width="1.84211" height="1.76191" fill="black"/>
<rect x="16.5791" y="14.0957" width="1.84211" height="1.7619" fill="black"/>
<rect x="16.5791" width="1.84211" height="1.7619" fill="black"/>
<rect x="5.52637" y="10.5713" width="1.84211" height="1.7619" fill="black"/>
<rect x="16.5791" y="10.5713" width="1.84211" height="1.7619" fill="black"/>
<rect x="9.21094" y="15.8574" width="1.8421" height="1.7619" fill="black"/>
<rect x="1.8418" y="22.9043" width="1.84211" height="1.7619" fill="black"/>
<rect x="12.8945" y="22.9043" width="1.8421" height="1.7619" fill="black"/>
<rect x="12.8945" y="33.4766" width="1.8421" height="1.76191" fill="black"/>
<rect x="12.8945" y="1.76172" width="1.8421" height="1.7619" fill="black"/>
<rect x="1.8418" y="26.4287" width="1.84211" height="1.7619" fill="black"/>
<rect x="5.52637" y="5.28613" width="1.84211" height="1.7619" fill="black"/>
<rect x="16.5791" y="33.4766" width="1.84211" height="1.76191" fill="black"/>
<rect x="16.5791" y="19.3809" width="1.84211" height="1.7619" fill="black"/>
<rect x="5.52637" y="29.9521" width="1.84211" height="1.7619" fill="black"/>
<rect x="16.5791" y="29.9521" width="1.84211" height="1.7619" fill="black"/>
<rect x="16.5791" y="15.8574" width="1.84211" height="1.7619" fill="black"/>
<rect x="5.52637" y="26.4287" width="1.84211" height="1.7619" fill="black"/>
<rect x="5.52637" y="12.333" width="1.84211" height="1.7619" fill="black"/>
<rect width="1.8421" height="1.7619" transform="matrix(-1 0 0 1 27.6318 14.0957)" fill="black"/>
<rect width="1.8421" height="1.7619" transform="matrix(-1 0 0 1 27.6318 10.5713)" fill="black"/>
<rect width="1.84211" height="1.76191" transform="matrix(-1 0 0 1 35 21.1426)" fill="black"/>
<rect width="1.84211" height="1.76191" transform="matrix(-1 0 0 1 23.9473 21.1426)" fill="black"/>
<rect width="1.84211" height="1.76191" transform="matrix(-1 0 0 1 35 17.6191)" fill="black"/>
<rect width="1.84211" height="1.7619" transform="matrix(-1 0 0 1 23.9473 31.7139)" fill="black"/>
<rect width="1.84211" height="1.7619" transform="matrix(-1 0 0 1 23.9473 3.52344)" fill="black"/>
<rect width="1.84211" height="1.7619" transform="matrix(-1 0 0 1 35 14.0957)" fill="black"/>
<rect width="1.84211" height="1.76191" transform="matrix(-1 0 0 1 23.9473 28.1904)" fill="black"/>
<rect width="1.84211" height="1.76191" transform="matrix(-1 0 0 1 35 24.667)" fill="black"/>
<rect width="1.84211" height="1.7619" transform="matrix(-1 0 0 1 35 10.5713)" fill="black"/>
<rect width="1.84211" height="1.7619" transform="matrix(-1 0 0 1 23.9473 10.5713)" fill="black"/>
<rect width="1.84211" height="1.7619" transform="matrix(-1 0 0 1 31.3154 7.04785)" fill="black"/>
<rect width="1.84211" height="1.76191" transform="matrix(-1 0 0 1 20.2627 35.2383)" fill="black"/>
<rect width="1.84211" height="1.76191" transform="matrix(-1 0 0 1 31.3154 17.6191)" fill="black"/>
<rect width="1.84211" height="1.76191" transform="matrix(-1 0 0 1 31.3154 28.1904)" fill="black"/>
<rect width="1.84211" height="1.76191" transform="matrix(-1 0 0 1 20.2627 28.1904)" fill="black"/>
<rect width="1.84211" height="1.7619" transform="matrix(-1 0 0 1 20.2627 10.5713)" fill="black"/>
<rect width="1.8421" height="1.7619" transform="matrix(-1 0 0 1 27.6318 8.80957)" fill="black"/>
<rect width="1.8421" height="1.7619" transform="matrix(-1 0 0 1 27.6318 5.28613)" fill="black"/>
<rect width="1.8421" height="1.7619" transform="matrix(-1 0 0 1 27.6318 29.9521)" fill="black"/>
<rect width="1.8421" height="1.7619" transform="matrix(-1 0 0 1 27.6318 26.4287)" fill="black"/>
<rect width="1.84211" height="1.7619" transform="matrix(-1 0 0 1 35 22.9043)" fill="black"/>
<rect width="1.84211" height="1.7619" transform="matrix(-1 0 0 1 35 8.80957)" fill="black"/>
<rect width="1.84211" height="1.7619" transform="matrix(-1 0 0 1 35 19.3809)" fill="black"/>
<rect width="1.84211" height="1.7619" transform="matrix(-1 0 0 1 23.9473 19.3809)" fill="black"/>
<rect width="1.84211" height="1.7619" transform="matrix(-1 0 0 1 23.9473 5.28613)" fill="black"/>
<rect width="1.84211" height="1.7619" transform="matrix(-1 0 0 1 35 15.8574)" fill="black"/>
<rect width="1.84211" height="1.7619" transform="matrix(-1 0 0 1 35 26.4287)" fill="black"/>
<rect width="1.84211" height="1.7619" transform="matrix(-1 0 0 1 35 12.333)" fill="black"/>
<rect width="1.84211" height="1.7619" transform="matrix(-1 0 0 1 31.3154 8.80957)" fill="black"/>
<rect width="1.84211" height="1.7619" transform="matrix(-1 0 0 1 31.3154 19.3809)" fill="black"/>
<rect width="1.84211" height="1.7619" transform="matrix(-1 0 0 1 31.3154 15.8574)" fill="black"/>
<rect width="1.84211" height="1.7619" transform="matrix(-1 0 0 1 20.2627 1.76172)" fill="black"/>
<rect width="1.84211" height="1.7619" transform="matrix(-1 0 0 1 31.3154 26.4287)" fill="black"/>
<rect width="1.84211" height="1.7619" transform="matrix(-1 0 0 1 20.2627 26.4287)" fill="black"/>
<rect width="1.84211" height="1.7619" transform="matrix(-1 0 0 1 25.7891 7.04785)" fill="black"/>
<rect width="1.84211" height="1.7619" transform="matrix(-1 0 0 1 25.7891 31.7139)" fill="black"/>
<rect width="1.84211" height="1.76191" transform="matrix(-1 0 0 1 25.7891 17.6191)" fill="black"/>
<rect width="1.84211" height="1.7619" transform="matrix(-1 0 0 1 25.7891 3.52344)" fill="black"/>
<rect width="1.84211" height="1.76191" transform="matrix(-1 0 0 1 25.7891 28.1904)" fill="black"/>
<rect width="1.84211" height="1.7619" transform="matrix(-1 0 0 1 25.7891 10.5713)" fill="black"/>
<rect width="1.8421" height="1.76191" transform="matrix(-1 0 0 1 33.1582 21.1426)" fill="black"/>
<rect width="1.8421" height="1.7619" transform="matrix(-1 0 0 1 33.1582 7.04785)" fill="black"/>
<rect width="1.8421" height="1.7619" transform="matrix(-1 0 0 1 22.1055 3.52344)" fill="black"/>
<rect width="1.8421" height="1.76191" transform="matrix(-1 0 0 1 22.1055 28.1904)" fill="black"/>
<rect width="1.8421" height="1.76191" transform="matrix(-1 0 0 1 33.1582 24.667)" fill="black"/>
<rect width="1.8421" height="1.76191" transform="matrix(-1 0 0 1 22.1055 24.667)" fill="black"/>
<rect width="1.8421" height="1.7619" transform="matrix(-1 0 0 1 22.1055 10.5713)" fill="black"/>
<rect width="1.84211" height="1.7619" transform="matrix(-1 0 0 1 29.4736 14.0957)" fill="black"/>
<rect width="1.84211" height="1.7619" transform="matrix(-1 0 0 1 29.4736 10.5713)" fill="black"/>
<rect width="1.84211" height="1.7619" transform="matrix(-1 0 0 1 25.7891 15.8574)" fill="black"/>
<rect width="1.8421" height="1.7619" transform="matrix(-1 0 0 1 33.1582 22.9043)" fill="black"/>
<rect width="1.8421" height="1.7619" transform="matrix(-1 0 0 1 22.1055 22.9043)" fill="black"/>
<rect width="1.8421" height="1.76191" transform="matrix(-1 0 0 1 22.1055 33.4766)" fill="black"/>
<rect width="1.8421" height="1.7619" transform="matrix(-1 0 0 1 22.1055 1.76172)" fill="black"/>
<rect width="1.8421" height="1.7619" transform="matrix(-1 0 0 1 33.1582 26.4287)" fill="black"/>
<rect width="1.84211" height="1.7619" transform="matrix(-1 0 0 1 29.4736 5.28613)" fill="black"/>
<rect width="1.84211" height="1.7619" transform="matrix(-1 0 0 1 29.4736 29.9521)" fill="black"/>
<rect width="1.84211" height="1.7619" transform="matrix(-1 0 0 1 29.4736 26.4287)" fill="black"/>
<rect width="1.84211" height="1.7619" transform="matrix(-1 0 0 1 29.4736 12.333)" fill="black"/>
</svg>
