<?xml version="1.0" ?>

<!-- Uploaded to: SVG Repo, www.svgrepo.com, Generator: SVG Repo Mixer Tools -->
<svg width="800px" height="800px" viewBox="0 0 32 32" id="svg5" version="1.1" xmlns="http://www.w3.org/2000/svg" xmlns:svg="http://www.w3.org/2000/svg">

<defs id="defs2"/>

<g id="layer1" transform="translate(-348,-292)">

<path d="m 363,311.01367 a 1,1 0 0 0 -1,1 1,1 0 0 0 1,1 h 10 a 1,1 0 0 0 1,-1 1,1 0 0 0 -1,-1 z" id="path453479" style="color:#000000;fill:#000000;fill-rule:evenodd;stroke-linecap:round;stroke-linejoin:round;stroke-miterlimit:4.1;-inkscape-stroke:none"/>

<path d="m 355,303.01367 a 1,1 0 0 0 -1,1 1,1 0 0 0 1,1 h 10 a 1,1 0 0 0 1,-1 1,1 0 0 0 -1,-1 z" id="path453465" style="color:#000000;fill:#000000;fill-rule:evenodd;stroke-linecap:round;stroke-linejoin:round;stroke-miterlimit:4.1;-inkscape-stroke:none"/>

<path d="m 355,299.01367 a 1,1 0 0 0 -1,1 1,1 0 0 0 1,1 h 10 a 1,1 0 0 0 1,-1 1,1 0 0 0 -1,-1 z" id="path453451" style="color:#000000;fill:#000000;fill-rule:evenodd;stroke-linecap:round;stroke-linejoin:round;stroke-miterlimit:4.1;-inkscape-stroke:none"/>

<path d="m 353,295.01367 c -1.64501,0 -3,1.35499 -3,3 v 14 c 0,0.66395 0.4382,1.24104 0.97852,1.46485 0.54031,0.2238 1.25903,0.12573 1.72851,-0.34375 a 1.0001,1.0001 0 0 0 0.0332,-0.0371 l 3.70313,-4.08399 H 358 v 5 c 0,1.64501 1.35499,3 3,3 h 10.55664 l 3.70313,4.08594 a 1.0001,1.0001 0 0 0 0.0332,0.0352 c 0.46943,0.46943 1.18816,0.56747 1.72851,0.34375 0.54036,-0.22373 0.97852,-0.8009 0.97852,-1.46485 v -14 c 0,-1.64501 -1.35499,-3 -3,-3 h -5 v -5 c 0,-1.64501 -1.35499,-3 -3,-3 z m 0,2 h 14 c 0.56413,0 1,0.43587 1,1 v 8 c 0,0.56413 -0.43587,1 -1,1 h -11 a 1.0001,1.0001 0 0 0 -0.74023,0.32813 L 352,310.93945 v -12.92578 c 0,-0.56413 0.43587,-1 1,-1 z m 17,8 h 5 c 0.56413,0 1,0.43587 1,1 v 12.92578 l -3.25977,-3.59765 A 1.0001,1.0001 0 0 0 372,315.01367 h -11 c -0.56413,0 -1,-0.43587 -1,-1 v -5 h 7 6 a 1,1 0 0 0 1,-1 1,1 0 0 0 -1,-1 h -3.17773 c 0.11257,-0.31368 0.17773,-0.64974 0.17773,-1 z" id="path453435" style="color:#000000;fill:#000000;fill-rule:evenodd;stroke-linecap:round;stroke-linejoin:round;stroke-miterlimit:4.1;-inkscape-stroke:none"/>

</g>

</svg>