<?xml version="1.0" encoding="iso-8859-1"?>
<!-- Uploaded to: SVG Repo, www.svgrepo.com, Generator: SVG Repo Mixer Tools -->
<svg fill="#000000" height="800px" width="800px" version="1.1" id="Layer_1" xmlns="http://www.w3.org/2000/svg" xmlns:xlink="http://www.w3.org/1999/xlink" 
	 viewBox="0 0 512 512" xml:space="preserve">
<g>
	<g>
		<g>
			<path d="M126.767,195.158c0,5.362,4.347,9.709,9.709,9.709c5.362,0,9.709-4.347,9.709-9.709V171.21h23.948
				c5.362,0,9.709-4.347,9.709-9.709c0-5.362-4.347-9.709-9.709-9.709h-23.948v-23.948c0-5.362-4.347-9.709-9.709-9.709
				c-5.362,0-9.709,4.347-9.709,9.709v23.948h-23.948c-5.362,0-9.709,4.347-9.709,9.709c0,5.362,4.347,9.709,9.709,9.709h23.948
				V195.158z"/>
			<path d="M147.535,307.132c-23.912,0-43.366,19.454-43.366,43.366s19.454,43.366,43.366,43.366
				c23.912,0,43.366-19.454,43.366-43.366C190.901,326.586,171.447,307.132,147.535,307.132z M147.535,374.446
				c-13.205,0-23.948-10.743-23.948-23.948s10.743-23.948,23.948-23.948s23.948,10.743,23.948,23.948
				C171.483,363.701,160.74,374.446,147.535,374.446z"/>
			<path d="M320.111,183.773c-1.522-5.142-6.923-8.076-12.065-6.555c-3.619,1.072-89.156,27.261-133.145,116.562
				c-2.37,4.81-0.391,10.629,4.419,12.999c1.38,0.68,2.841,1.002,4.282,1.001c3.582,0,7.028-1.991,8.717-5.421
				c40.04-81.285,120.119-106.185,121.244-106.525C318.7,194.31,321.63,188.912,320.111,183.773z"/>
			<path d="M469.929,31.938H42.071C18.874,31.938,0,50.812,0,74.009v363.982c0,23.197,18.874,42.071,42.071,42.071h427.858
				c23.197,0,42.071-18.874,42.071-42.071V74.009C512,50.81,493.126,31.938,469.929,31.938z M317.45,460.645H194.552v-32.362H317.45
				V460.645z M71.197,408.865v-305.73h369.606v305.73H71.197z M492.583,437.991c0,12.491-10.163,22.654-22.654,22.654h-133.06
				v-32.362h113.642c5.362,0,9.709-4.347,9.709-9.709V93.426c0-5.362-4.347-9.709-9.709-9.709H61.489
				c-5.362,0-9.709,4.347-9.709,9.709v325.147c0,5.362,4.347,9.709,9.709,9.709h113.646v32.362H42.071
				c-12.491,0-22.654-10.163-22.654-22.654V74.009c0-12.491,10.163-22.654,22.654-22.654h427.858
				c12.491,0,22.654,10.163,22.654,22.654V437.991z"/>
			<path d="M371.426,127.749c-23.912,0-43.366,19.454-43.366,43.366s19.454,43.366,43.366,43.366s43.366-19.454,43.366-43.366
				S395.337,127.749,371.426,127.749z M371.426,195.062c-13.205,0-23.948-10.743-23.948-23.948s10.743-23.948,23.948-23.948
				s23.948,10.743,23.948,23.948S384.631,195.062,371.426,195.062z"/>
			<path d="M388.246,318.015h-23.948v-23.948c0-5.362-4.347-9.709-9.709-9.709c-5.362,0-9.709,4.347-9.709,9.709v23.948h-23.948
				c-5.362,0-9.709,4.347-9.709,9.709s4.347,9.709,9.709,9.709h23.948v23.948c0,5.362,4.347,9.709,9.709,9.709
				c5.362,0,9.709-4.347,9.709-9.709v-23.948h23.948c5.362,0,9.709-4.347,9.709-9.709
				C397.955,322.362,393.608,318.015,388.246,318.015z"/>
		</g>
	</g>
</g>
</svg>