<svg width="1610" height="3149" viewBox="0 0 1610 3149" fill="none" xmlns="http://www.w3.org/2000/svg">
<rect x="498" y="2917" width="45" height="45" transform="rotate(90 498 2917)" fill="#4FEA74"/>
<rect x="442" y="1310" width="45" height="45" fill="#4FEA74"/>
<rect x="1373" y="1087" width="45" height="45" fill="#4FEA74"/>
<rect x="442" y="1355" width="45" height="45" fill="#4FEA74"/>
<rect x="406" y="106" width="45" height="45" fill="#4FEA74"/>
<rect x="406" y="152" width="45" height="45" fill="#4FEA74"/>
<rect x="1418" y="1132" width="45" height="45" fill="#4FEA74"/>
<rect x="1418" y="1087" width="45" height="45" fill="#4FEA74"/>
<rect x="932" y="1220" width="45" height="45" fill="#4FEA74"/>
<rect x="881" y="197" width="45" height="45" fill="#4FEA74"/>
<rect x="977" y="1265" width="45" height="45" fill="#4FEA74"/>
<rect x="1395" y="1960" width="45" height="45" fill="#4FEA74"/>
<rect x="791" y="287" width="45" height="45" fill="#4FEA74"/>
<rect x="1440" y="1960" width="45" height="45" fill="#4FEA74"/>
<rect x="1485" y="1960" width="45" height="45" fill="#4FEA74"/>
<rect x="836" y="242" width="45" height="45" fill="#4FEA74"/>
<rect x="881" y="242" width="45" height="45" fill="#4FEA74"/>
<rect x="484" y="958" width="45" height="45" fill="#4FEA74"/>
<rect x="708" y="913" width="45" height="45" fill="#4FEA74"/>
<rect x="1285" y="913" width="45" height="45" transform="rotate(90 1285 913)" fill="#4FEA74"/>
<rect x="529" y="913" width="45" height="45" fill="#4FEA74"/>
<rect x="1565" y="242" width="45" height="45" transform="rotate(90 1565 242)" fill="#4FEA74"/>
<rect x="1610" y="287" width="45" height="45" transform="rotate(90 1610 287)" fill="#4FEA74"/>
<rect x="1240" y="913" width="45" height="45" transform="rotate(90 1240 913)" fill="#4FEA74"/>
<rect x="1520" y="242" width="45" height="45" transform="rotate(90 1520 242)" fill="#4FEA74"/>
<rect x="66" y="1803" width="45" height="45" fill="#4FEA74"/>
<rect x="21" y="1758" width="45" height="45" fill="#4FEA74"/>
<rect x="1144" y="1624" width="45" height="45" fill="#4FEA74"/>
<rect x="1099" y="1579" width="45" height="45" fill="#4FEA74"/>
<rect x="677" y="2115" width="45" height="45" transform="rotate(-180 677 2115)" fill="#4FEA74"/>
<rect x="1361" width="45" height="45" fill="#4FEA74"/>
<rect x="765" y="2160" width="45" height="45" transform="rotate(-180 765 2160)" fill="#4FEA74"/>
<rect x="722" y="2115" width="45" height="45" transform="rotate(-180 722 2115)" fill="#4FEA74"/>
<rect x="45" y="2093" width="45" height="45" transform="rotate(-180 45 2093)" fill="#4FEA74"/>
<rect x="162" y="1155" width="45" height="45" transform="rotate(-180 162 1155)" fill="#4FEA74"/>
<rect x="117" y="2648" width="45" height="45" transform="rotate(-180 117 2648)" fill="#4FEA74"/>
<rect x="117" y="2693" width="45" height="45" transform="rotate(-180 117 2693)" fill="#4FEA74"/>
<rect x="162" y="3011" width="45" height="45" transform="rotate(-180 162 3011)" fill="#4FEA74"/>
<path d="M207 3054L162 3054L162 3009L207 3009L207 3054Z" fill="#4FEA74"/>
<rect x="453" y="2917" width="45" height="45" transform="rotate(90 453 2917)" fill="#4FEA74"/>
<rect x="1136" y="2827" width="45" height="45" fill="#4FEA74"/>
<rect x="1136" y="2872" width="45" height="45" fill="#4FEA74"/>
<rect x="1091" y="2917" width="45" height="45" fill="#4FEA74"/>
<rect x="1485" y="2205" width="45" height="45" transform="rotate(-180 1485 2205)" fill="#4FEA74"/>
<rect x="1136" y="2277" width="45" height="45" transform="rotate(-180 1136 2277)" fill="#4FEA74"/>
<rect x="784" y="3149" width="45" height="45" transform="rotate(-180 784 3149)" fill="#4FEA74"/>
</svg>
