<svg width="72" height="72" viewBox="0 0 72 72" fill="none" xmlns="http://www.w3.org/2000/svg">
<path d="M0.00222536 35.9978C0.00222536 26.8423 0.00222536 17.6893 0.00222536 8.53382C0.00472889 3.39512 3.37698 0.00438242 8.4942 0.00187818C26.8326 -0.00062606 45.1734 -0.00062606 63.5118 0.00187818C68.5914 0.00187818 71.9937 3.38761 71.9962 8.44367C72.0012 26.8148 72.0012 45.1859 71.9962 63.557C71.9962 68.5704 68.5914 71.9937 63.6019 71.9962C45.201 72.0013 26.7975 72.0013 8.39656 71.9962C3.40703 71.9962 0.00723242 68.5704 0.00222536 63.557C-0.0027817 54.3714 0.00222536 45.1859 0.00222536 36.0003V35.9978ZM16.0574 43.9337H55.9436C49.2492 35.9026 42.6574 27.9943 36.0005 20.0057C29.3436 27.9918 22.7518 35.9001 16.0574 43.9337Z" fill="#4FEA74"/>
</svg>
